<svg width="333" height="333" viewBox="0 0 333 333" fill="none" xmlns="http://www.w3.org/2000/svg">
<rect width="332.116" height="332.116" fill="#185333"/>
<path d="M85.0141 101.174L67.1416 89.8925L67.1501 80.6197L135.112 61.4613L146.493 61.4717L145.161 93.6105C154.27 78.708 172.158 61.4954 199.788 61.5208C238.148 61.5561 265.422 88.7584 265.372 143.101C265.31 211.027 224.643 246.787 173.29 246.74C160.938 246.729 150.541 244.401 145.015 239.759L144.972 286.484C144.961 298.413 150.811 299.082 169.984 300.754L169.972 313.673L66.6155 313.578L66.6274 300.647C79.6321 299.669 84.8326 298.346 84.8424 287.745L85.0141 101.174ZM204.255 161.602C204.296 117.86 189.036 97.6346 164.331 97.6119C157.509 97.6056 151.006 99.2539 145.152 103.232L145.066 196.344C145.046 217.883 150.885 231.145 168.116 231.161C191.508 231.171 204.219 200.697 204.255 161.602Z" fill="white"/>
</svg>
