<svg width="1076" height="178" viewBox="0 0 1076 178" fill="none" xmlns="http://www.w3.org/2000/svg">
<path d="M11.6993 42.3022L0.335308 35.1292L0.340735 29.2332L43.553 17.0517L50.7895 17.0583L49.9424 37.4932C55.7347 28.0177 67.1083 17.0734 84.6765 17.0895C109.067 17.112 126.409 34.4081 126.377 68.9612C126.337 112.151 100.48 134.888 67.8281 134.858C59.974 134.851 53.3636 133.371 49.8499 130.419L49.8225 160.128C49.8156 167.713 53.5352 168.139 65.7259 169.202L65.7184 177.416L0.000848118 177.356L0.00841562 169.134C8.27721 168.512 11.5839 167.671 11.5901 160.93L11.6993 42.3022ZM87.5167 80.7246C87.5423 52.9118 77.8401 40.0519 62.1319 40.0374C57.7942 40.0334 53.6591 41.0814 49.9368 43.611L49.8823 102.814C49.8697 116.51 53.5819 124.942 64.5384 124.952C79.4113 124.959 87.4938 105.582 87.5167 80.7246Z" fill="#232323"/>
<path d="M182.565 113.241C182.556 122.3 187.307 123.149 199.091 124.634L199.083 132.848L132.944 132.787L132.952 124.573C141.221 123.951 144.527 123.109 144.534 116.369L144.602 42.4115L133.238 35.2386L133.243 29.3426L176.455 17.161L183.481 17.1675L182.623 49.6162C191.125 24.9667 198.361 17.1812 211.381 17.1932C216.133 17.1976 219.648 18.6748 221.71 20.7875L221.683 50.0743L216.72 50.0697C203.7 50.0577 192.126 50.4693 182.609 57.623L182.558 113.241L182.565 113.241Z" fill="#232323"/>
<path d="M224.717 78.3142C224.75 42.9168 248.75 17.2369 282.644 17.2681C316.749 17.2995 340.283 39.4455 340.252 73.9986C340.219 109.396 316.219 135.076 282.325 135.045C248.227 135.013 224.685 112.867 224.717 78.3142ZM299.737 83.2346C299.769 48.6815 295.038 26.1307 281.604 26.1183C269.202 26.1069 265.263 42.3244 265.239 69.0854C265.207 103.638 270.148 126.189 283.372 126.202C295.767 126.206 299.713 109.988 299.737 83.2346Z" fill="#232323"/>
<path d="M357.023 42.6069L345.659 35.4339L345.664 29.5379L388.869 17.3564L396.106 17.363L395.259 37.7979C401.058 28.3224 412.432 17.378 430 17.3942C454.39 17.4167 471.732 34.7128 471.7 69.2659C471.661 112.455 445.803 135.193 413.152 135.163C405.297 135.155 398.687 133.675 395.173 130.724L395.146 160.433C395.139 168.018 398.859 168.443 411.049 169.506L411.042 177.721L345.317 177.66L345.325 169.439C353.594 168.817 356.9 167.975 356.906 161.235L357.016 42.6068L357.023 42.6069ZM432.833 81.0292C432.859 53.2165 423.156 40.3565 407.448 40.3421C403.111 40.3381 398.976 41.3861 395.253 43.9157L395.199 103.119C395.186 116.814 398.898 125.247 409.855 125.257C424.735 125.263 432.81 105.887 432.833 81.0292Z" fill="#232323"/>
<path d="M584.802 63.6903L584.797 68.9566L518.869 68.896C518.432 93.9679 532.062 109.572 550.866 109.589C564.096 109.601 573.808 104.766 581.672 94.2336L585.593 96.763C579.991 119.934 564.066 135.303 538.019 135.279C507.43 135.251 484.301 114.372 484.334 78.9747C484.383 41.4736 509.82 17.4765 539.58 17.5039C569.55 17.5315 584.827 36.9294 584.802 63.6903ZM519.082 59.2007L552.147 59.2311C552.166 38.7955 548.254 26.3559 537.087 26.3456C525.731 26.3423 520.138 39.6103 519.082 59.2007Z" fill="#232323"/>
<path d="M640.772 113.671C640.763 122.73 645.514 123.578 657.298 125.063L657.29 133.278L591.151 133.217L591.159 125.002C599.428 124.38 602.734 123.539 602.741 116.799L602.809 42.8412L591.445 35.6683L591.45 29.7723L634.662 17.5907L641.688 17.5972L640.83 50.0459C649.325 25.3964 656.568 17.6109 669.588 17.6229C674.34 17.6273 677.855 19.1045 679.917 21.2172L679.89 50.504L674.927 50.4994C661.907 50.4874 650.333 50.8989 640.816 58.0527L640.765 113.671L640.772 113.671Z" fill="#232323"/>
<path d="M684.136 120.558L679.883 120.554L679.871 133.312L677.035 133.31L677.047 120.552L672.787 120.548L672.789 117.965L684.139 117.975L684.136 120.558Z" fill="#232323"/>
<path d="M702.336 133.336L699.564 133.334L699.573 123.145L699.398 123.145L695.649 131.577L692.792 131.575L689.038 123.135L688.869 123.135L688.86 133.324L686.087 133.322L686.102 117.98L689.583 117.984L694.15 128.506L694.318 128.506L698.883 117.992L702.343 117.995L702.329 133.336L702.336 133.336Z" fill="#232323"/>
<path d="M763.856 133V37.64H795.088C804.987 37.64 813.563 39.6453 820.816 43.656C828.155 47.5813 833.829 53.128 837.84 60.296C841.851 67.464 843.856 75.784 843.856 85.256C843.856 94.6427 841.851 102.963 837.84 110.216C833.829 117.384 828.155 122.973 820.816 126.984C813.563 130.995 804.987 133 795.088 133H763.856ZM778.96 119.56H795.344C802.085 119.56 807.931 118.152 812.88 115.336C817.915 112.52 821.797 108.552 824.528 103.432C827.259 98.312 828.624 92.2533 828.624 85.256C828.624 78.2587 827.216 72.2427 824.4 67.208C821.669 62.088 817.829 58.12 812.88 55.304C807.931 52.488 802.085 51.08 795.344 51.08H778.96V119.56ZM890.731 134.536C884.075 134.536 877.974 132.957 872.427 129.8C866.966 126.643 862.614 122.333 859.371 116.872C856.128 111.411 854.507 105.224 854.507 98.312C854.507 91.3147 856.128 85.128 859.371 79.752C862.614 74.2907 866.966 70.024 872.427 66.952C877.888 63.7947 883.99 62.216 890.731 62.216C897.558 62.216 903.659 63.7947 909.035 66.952C914.496 70.024 918.806 74.2907 921.963 79.752C925.206 85.128 926.827 91.3147 926.827 98.312C926.827 105.309 925.206 111.539 921.963 117C918.72 122.461 914.368 126.771 908.907 129.928C903.446 133 897.387 134.536 890.731 134.536ZM890.731 121.096C894.827 121.096 898.454 120.115 901.611 118.152C904.768 116.189 907.243 113.501 909.035 110.088C910.912 106.589 911.851 102.664 911.851 98.312C911.851 93.96 910.912 90.0773 909.035 86.664C907.243 83.2507 904.768 80.5627 901.611 78.6C898.454 76.6373 894.827 75.656 890.731 75.656C886.72 75.656 883.094 76.6373 879.851 78.6C876.694 80.5627 874.176 83.2507 872.299 86.664C870.507 90.0773 869.611 93.96 869.611 98.312C869.611 102.664 870.507 106.589 872.299 110.088C874.176 113.501 876.694 116.189 879.851 118.152C883.094 120.115 886.72 121.096 890.731 121.096ZM973.844 134.536C966.932 134.536 960.788 132.957 955.412 129.8C950.121 126.557 945.897 122.205 942.74 116.744C939.668 111.283 938.132 105.096 938.132 98.184C938.132 91.3573 939.668 85.2133 942.74 79.752C945.812 74.2907 950.036 70.024 955.412 66.952C960.788 63.7947 966.932 62.216 973.844 62.216C978.537 62.216 982.932 63.0693 987.028 64.776C991.124 66.3973 994.665 68.6587 997.652 71.56C1000.72 74.4613 1002.99 77.832 1004.44 81.672L991.764 87.56C990.313 83.976 987.967 81.1173 984.724 78.984C981.567 76.7653 977.94 75.656 973.844 75.656C969.919 75.656 966.377 76.6373 963.22 78.6C960.148 80.4773 957.716 83.1653 955.924 86.664C954.132 90.0773 953.236 93.96 953.236 98.312C953.236 102.664 954.132 106.589 955.924 110.088C957.716 113.501 960.148 116.189 963.22 118.152C966.377 120.115 969.919 121.096 973.844 121.096C978.025 121.096 981.652 120.029 984.724 117.896C987.881 115.677 990.228 112.733 991.764 109.064L1004.44 115.08C1003.07 118.749 1000.85 122.077 997.78 125.064C994.793 127.965 991.252 130.269 987.156 131.976C983.06 133.683 978.623 134.536 973.844 134.536ZM1044.17 134.536C1037.09 134.536 1030.86 132.787 1025.49 129.288C1020.19 125.789 1016.48 121.096 1014.35 115.208L1025.49 109.96C1027.36 113.885 1029.92 117 1033.17 119.304C1036.49 121.608 1040.16 122.76 1044.17 122.76C1047.59 122.76 1050.36 121.992 1052.49 120.456C1054.63 118.92 1055.69 116.829 1055.69 114.184C1055.69 112.477 1055.22 111.112 1054.29 110.088C1053.35 108.979 1052.15 108.083 1050.7 107.4C1049.34 106.717 1047.93 106.205 1046.48 105.864L1035.6 102.792C1029.62 101.085 1025.14 98.5253 1022.16 95.112C1019.26 91.6133 1017.81 87.56 1017.81 82.952C1017.81 78.7707 1018.87 75.144 1021.01 72.072C1023.14 68.9147 1026.08 66.4827 1029.84 64.776C1033.59 63.0693 1037.82 62.216 1042.51 62.216C1048.82 62.216 1054.46 63.7947 1059.41 66.952C1064.35 70.024 1067.85 74.3333 1069.9 79.88L1058.77 85.128C1057.4 81.8 1055.22 79.1547 1052.24 77.192C1049.34 75.2293 1046.05 74.248 1042.38 74.248C1039.22 74.248 1036.71 75.016 1034.83 76.552C1032.95 78.0027 1032.01 79.9227 1032.01 82.312C1032.01 83.9333 1032.44 85.2987 1033.29 86.408C1034.15 87.432 1035.26 88.2853 1036.62 88.968C1037.99 89.5653 1039.39 90.0773 1040.85 90.504L1052.11 93.832C1057.83 95.4533 1062.22 98.0133 1065.29 101.512C1068.37 104.925 1069.9 109.021 1069.9 113.8C1069.9 117.896 1068.79 121.523 1066.57 124.68C1064.44 127.752 1061.45 130.184 1057.61 131.976C1053.77 133.683 1049.29 134.536 1044.17 134.536Z" fill="#185333"/>
</svg>
